<svg xmlns="http://www.w3.org/2000/svg" viewBox="0 0 512 512" style="enable-background:new 0 0 512 512" xml:space="preserve"><path style="fill:#0fa46e" d="M512 255.904c0 70.692-28.654 134.692-74.981 181.019S326.692 511.904 256 511.904s-134.692-28.654-181.019-74.98S0 326.597 0 255.904 28.654 121.212 74.981 74.885 185.308-.096 256-.096s134.692 28.654 181.019 74.981S512 185.212 512 255.904z"/><path style="fill:#026841" d="M489.02 362.044c-20.165 44.205-52.54 81.67-92.814 108.084S307.76 511.904 256 511.904s-99.932-15.363-140.206-41.776-72.649-63.879-92.814-108.084h466.04z"/><path style="fill:#b7d9e8" d="M152.493 422.092h-.846c-5.664 0-10.817-2.247-14.6-5.91s-6.195-8.74-6.378-14.401l-4.968-153.914-4.968-153.914a6.542 6.542 0 0 1 1.845-4.779 6.543 6.543 0 0 1 4.717-1.999h14.384l-1.155-35.8-1.155-35.8h-34.572a7.067 7.067 0 0 0-5.096 2.159 7.072 7.072 0 0 0-1.994 5.163l6.442 199.579 6.442 199.579c.236 7.314 3.353 13.875 8.24 18.607s11.545 7.636 18.863 7.636h41.9a27.036 27.036 0 0 1-18.851-7.625 27.029 27.029 0 0 1-8.25-18.581z"/><path style="fill:#c5e9fd" d="m288.261 422.058 6.442-199.579L301.144 22.9a7.066 7.066 0 0 0-1.994-5.163 7.07 7.07 0 0 0-5.096-2.159H139.371l1.155 35.8 1.155 35.8h136.654l-5.077 157.303-5.077 157.303a20.926 20.926 0 0 1-6.378 14.401 20.927 20.927 0 0 1-14.6 5.91h-94.712a27.042 27.042 0 0 0 8.25 18.584 27.034 27.034 0 0 0 18.851 7.625h81.564a27.04 27.04 0 0 0 18.863-7.636 27.046 27.046 0 0 0 8.242-18.61z"/><path style="fill:#74c4e8" d="M130.67 401.781c.183 5.661 2.595 10.739 6.378 14.401s8.936 5.91 14.6 5.91h.846l-.001-.017-.001-.017-5.404-167.441-5.404-167.441h-15.06c-1.67 0-3.174.691-4.247 1.8a5.896 5.896 0 0 0-1.662 4.303l4.979 154.251 4.976 154.251z"/><path style="fill:#7ccffd" d="M152.491 422.092h100.438c4.068 0 7.77-1.614 10.487-4.245a15.032 15.032 0 0 0 4.581-10.345l5.169-160.163 5.169-160.163H141.681l5.405 167.458 5.405 167.458z"/><path style="fill:#9adbf7" d="M220.259 125.817c0 4.26 1.727 8.116 4.518 10.907 2.791 2.791 6.648 4.518 10.907 4.518s8.116-1.727 10.907-4.518a15.378 15.378 0 0 0 4.518-10.907c0-4.26-1.727-8.116-4.518-10.907-2.791-2.791-6.648-4.518-10.907-4.518s-8.116 1.727-10.907 4.518a15.378 15.378 0 0 0-4.518 10.907z"/><path style="fill:#74c4e8" d="M220.259 192.152c0 4.26 1.727 8.116 4.518 10.907 2.791 2.791 6.648 4.518 10.907 4.518s8.116-1.727 10.907-4.518c2.791-2.791 4.518-6.648 4.518-10.907s-1.727-8.116-4.518-10.907c-2.791-2.791-6.648-4.518-10.907-4.518s-8.116 1.727-10.907 4.518a15.377 15.377 0 0 0-4.518 10.907zM158.449 291.409c0 4.26 1.727 8.116 4.518 10.907 2.791 2.791 6.648 4.518 10.907 4.518s8.116-1.727 10.907-4.518a15.378 15.378 0 0 0 4.518-10.907c0-4.26-1.727-8.116-4.518-10.907-2.791-2.791-6.648-4.518-10.907-4.518s-8.116 1.727-10.907 4.518a15.372 15.372 0 0 0-4.518 10.907z"/><path style="fill:#9adbf7" d="M199.287 252.174c0 2.934 1.189 5.59 3.112 7.513a10.591 10.591 0 0 0 7.513 3.112c2.934 0 5.59-1.189 7.513-3.112a10.591 10.591 0 0 0 3.112-7.513c0-2.934-1.189-5.59-3.112-7.513s-4.579-3.112-7.513-3.112-5.59 1.189-7.513 3.112a10.59 10.59 0 0 0-3.112 7.513zM229.781 302.034c0 2.934 1.189 5.59 3.112 7.513a10.591 10.591 0 0 0 7.513 3.112c2.934 0 5.59-1.189 7.513-3.112s3.112-4.579 3.112-7.513-1.189-5.59-3.112-7.513a10.591 10.591 0 0 0-7.513-3.112c-2.934 0-5.59 1.189-7.513 3.112a10.591 10.591 0 0 0-3.112 7.513zM163.249 111.9c0 2.934 1.189 5.59 3.112 7.513a10.591 10.591 0 0 0 7.513 3.112c2.934 0 5.59-1.189 7.513-3.112s3.112-4.579 3.112-7.513-1.189-5.59-3.112-7.513-4.579-3.112-7.513-3.112-5.59 1.189-7.513 3.112a10.595 10.595 0 0 0-3.112 7.513zM152.493 198.335c0 5.904 2.393 11.25 6.262 15.119 3.869 3.869 9.215 6.262 15.119 6.262s11.25-2.393 15.119-6.262c3.869-3.869 6.262-9.215 6.262-15.119s-2.393-11.25-6.262-15.119c-3.869-3.869-9.215-6.262-15.119-6.262s-11.25 2.393-15.119 6.262a21.315 21.315 0 0 0-6.262 15.119z"/><path style="fill:#e6b372" d="M424.837 421.72v13.538c0 2.156-.875 4.108-2.288 5.522s-3.366 2.288-5.522 2.288H333.714a7.789 7.789 0 0 1-5.522-2.288 7.784 7.784 0 0 1-2.288-5.522V421.72c0-2.156.875-4.108 2.288-5.522a7.784 7.784 0 0 1 5.522-2.288h83.312c2.156 0 4.108.875 5.522 2.288a7.785 7.785 0 0 1 2.289 5.522z"/><path style="fill:#fdc679" d="M424.837 421.72v13.538c0 2.156-.875 4.108-2.288 5.522s-3.366 2.288-5.522 2.288h-51.028a7.789 7.789 0 0 1-5.522-2.288 7.784 7.784 0 0 1-2.288-5.522V421.72c0-2.156.875-4.108 2.288-5.522a7.784 7.784 0 0 1 5.522-2.288h51.028c2.156 0 4.108.875 5.522 2.288a7.789 7.789 0 0 1 2.288 5.522z"/><path style="fill:#e6b372" d="M440.979 392.561v13.538a7.789 7.789 0 0 1-2.288 5.522 7.785 7.785 0 0 1-5.522 2.289h-83.312a7.785 7.785 0 0 1-5.522-2.289 7.784 7.784 0 0 1-2.288-5.522v-13.538c0-2.156.875-4.108 2.288-5.522a7.784 7.784 0 0 1 5.522-2.288h83.312c2.156 0 4.108.875 5.522 2.288a7.787 7.787 0 0 1 2.288 5.522z"/><path style="fill:#fdc679" d="M440.979 392.561v13.538a7.789 7.789 0 0 1-2.288 5.522 7.785 7.785 0 0 1-5.522 2.289h-51.028a7.785 7.785 0 0 1-5.522-2.289 7.784 7.784 0 0 1-2.288-5.522v-13.538c0-2.156.875-4.108 2.288-5.522s3.366-2.288 5.522-2.288h51.028c2.156 0 4.108.875 5.522 2.288a7.787 7.787 0 0 1 2.288 5.522z"/><path style="fill:#e6b372" d="M424.837 363.401v13.538c0 2.156-.875 4.108-2.288 5.522s-3.366 2.288-5.522 2.288H333.714a7.789 7.789 0 0 1-5.522-2.288 7.784 7.784 0 0 1-2.288-5.522v-13.538c0-2.156.875-4.108 2.288-5.522a7.784 7.784 0 0 1 5.522-2.288h83.312c2.156 0 4.108.875 5.522 2.288a7.787 7.787 0 0 1 2.289 5.522z"/><path style="fill:#fdc679" d="M424.837 363.401v13.538c0 2.156-.875 4.108-2.288 5.522s-3.366 2.288-5.522 2.288h-51.028a7.789 7.789 0 0 1-5.522-2.288 7.784 7.784 0 0 1-2.288-5.522v-13.538c0-2.156.875-4.108 2.288-5.522a7.784 7.784 0 0 1 5.522-2.288h51.028c2.156 0 4.108.875 5.522 2.288a7.79 7.79 0 0 1 2.288 5.522z"/><g><path style="fill:#e6b372" d="M319.308 414.261a49.332 49.332 0 0 1-10.403 32.059c-6.869 8.821-16.67 15.277-28 17.868a49.102 49.102 0 0 1-9.459 1.232c-13.673.455-26.235-4.674-35.493-13.335-9.258-8.661-15.211-20.854-15.666-34.527-.455-13.673 4.674-26.235 13.335-35.493 8.661-9.258 20.854-15.211 34.527-15.666 1.621-.054 3.229-.029 4.817.072s3.158.278 4.703.528c11.477 1.832 21.686 7.622 29.126 15.966s12.112 19.245 12.513 31.296z"/><path style="fill:#fdc679" d="M319.308 414.261a49.332 49.332 0 0 1-10.403 32.059c-6.869 8.821-16.67 15.277-28 17.868-11.478-1.832-21.687-7.622-29.126-15.966a49.327 49.327 0 0 1-12.512-31.296c-.401-12.052 3.535-23.238 10.403-32.059s16.67-15.277 28-17.868c11.477 1.832 21.686 7.622 29.126 15.966s12.111 19.245 12.512 31.296z"/><path style="fill:#e6b372" d="m300.972 423.133-30.899 1.029-30.899 1.029a6.368 6.368 0 0 1-4.575-1.719 6.362 6.362 0 0 1-2.019-4.45l-.062-1.87-.062-1.87c-.059-1.762.602-3.381 1.719-4.575s2.688-1.961 4.45-2.019l30.899-1.029 30.899-1.029c1.762-.059 3.381.602 4.575 1.719s1.961 2.688 2.019 4.45l.062 1.87.062 1.87a6.368 6.368 0 0 1-1.719 4.575 6.368 6.368 0 0 1-4.45 2.019z"/></g><g><path style="fill:#ad3948" d="m101.217 389.001 11.698 11.698 11.698 11.698a21.416 21.416 0 0 1 6.063 12.016 21.557 21.557 0 0 1-2.123 13.002 21.317 21.317 0 0 1-1.732 2.821 21.664 21.664 0 0 1-2.208 2.583 21.446 21.446 0 0 1-15.211 6.301c-5.505 0-11.01-2.1-15.211-6.301l-11.698-11.698-11.698-11.698c-4.2-4.2-6.301-9.706-6.301-15.211s2.1-11.01 6.301-15.211a21.725 21.725 0 0 1 2.582-2.207 21.402 21.402 0 0 1 7.613-3.504 21.567 21.567 0 0 1 13.11.985 21.459 21.459 0 0 1 7.117 4.726z"/><path style="fill:#2693d5" d="m101.217 389.001 6.483 6.483 6.483 6.483-15.211 15.211-15.211 15.211-6.483-6.483-6.483-6.483c-4.2-4.2-6.301-9.706-6.301-15.211s2.1-11.01 6.301-15.211a21.725 21.725 0 0 1 2.582-2.207 21.402 21.402 0 0 1 7.613-3.504 21.567 21.567 0 0 1 13.11.985 21.459 21.459 0 0 1 7.117 4.726z"/><path style="fill:#f44755" d="m101.217 389.001 11.698 11.698 11.698 11.698a21.416 21.416 0 0 1 6.063 12.016 21.557 21.557 0 0 1-2.123 13.002 21.549 21.549 0 0 1-13.002 2.123 21.416 21.416 0 0 1-12.016-6.063l-11.698-11.698-11.697-11.698a21.416 21.416 0 0 1-6.063-12.016 21.55 21.55 0 0 1 2.123-13.002 21.402 21.402 0 0 1 4.791-1.771 21.567 21.567 0 0 1 13.11.985 21.465 21.465 0 0 1 7.116 4.726z"/><path style="fill:#2d9df6" d="M101.217 389.001a21.447 21.447 0 0 0-15.21-6.301c-1.684 0-3.369.197-5.016.591a21.402 21.402 0 0 0-4.791 1.771 21.549 21.549 0 0 0-2.123 13.002 21.416 21.416 0 0 0 6.063 12.016l6.483 6.483 6.483 6.483 5.269-5.269 5.269-5.269-4.482-4.482-4.482-4.482a5.438 5.438 0 0 1-1.598-3.857c0-1.396.533-2.792 1.598-3.857a5.438 5.438 0 0 1 3.857-1.598c1.396 0 2.792.533 3.857 1.598l4.482 4.482 4.482 4.482 1.412-1.412 1.412-1.412-6.483-6.483-6.482-6.486z"/><path style="fill:#f47a80" d="M112.608 421.47c1.065 1.065 2.461 1.598 3.857 1.598s2.792-.533 3.857-1.598c1.065-1.065 1.598-2.461 1.598-3.857s-.533-2.792-1.598-3.857l-4.482-4.482-4.482-4.482-3.857 3.857-3.857 3.857 4.482 4.482 4.482 4.482z"/><path style="fill:#62bff4" d="M94.681 395.829a5.438 5.438 0 0 0-1.598 3.857c0 1.396.533 2.792 1.598 3.857l4.482 4.482 4.482 4.482 3.857-3.857 3.857-3.857-4.482-4.482-4.482-4.482a5.438 5.438 0 0 0-3.857-1.598 5.438 5.438 0 0 0-3.857 1.598z"/></g><g><path style="fill:#ad3948" d="M348.596 410.878h33.088a21.41 21.41 0 0 1 12.783 4.209 21.544 21.544 0 0 1 7.692 10.695 21.356 21.356 0 0 1 1.035 6.607c0 5.94-2.408 11.318-6.3 15.211a21.445 21.445 0 0 1-15.211 6.301h-33.087a21.445 21.445 0 0 1-15.211-6.301 21.444 21.444 0 0 1-6.3-15.211 21.44 21.44 0 0 1 3.17-11.248 21.574 21.574 0 0 1 9.967-8.574 21.437 21.437 0 0 1 8.374-1.689z"/><path style="fill:#2693d5" d="M348.596 410.878h18.336V453.9h-18.336a21.445 21.445 0 0 1-15.211-6.301 21.444 21.444 0 0 1-6.3-15.211 21.44 21.44 0 0 1 3.17-11.248 21.574 21.574 0 0 1 9.967-8.574 21.436 21.436 0 0 1 8.374-1.688z"/><path style="fill:#f44755" d="M348.596 410.878h33.088a21.41 21.41 0 0 1 12.783 4.209 21.544 21.544 0 0 1 7.692 10.695 21.556 21.556 0 0 1-7.692 10.695 21.414 21.414 0 0 1-12.783 4.209h-33.088a21.41 21.41 0 0 1-12.783-4.209 21.544 21.544 0 0 1-7.692-10.695 21.438 21.438 0 0 1 2.135-4.64 21.574 21.574 0 0 1 9.967-8.574 21.432 21.432 0 0 1 8.373-1.69z"/><path style="fill:#2d9df6" d="M348.596 410.878c-2.97 0-5.8.602-8.373 1.691a21.577 21.577 0 0 0-9.967 8.574 21.39 21.39 0 0 0-2.135 4.64 21.556 21.556 0 0 0 7.692 10.695 21.414 21.414 0 0 0 12.783 4.209h18.336v-14.904h-12.676c-1.506 0-2.87-.611-3.857-1.598s-1.598-2.351-1.598-3.857.611-2.87 1.598-3.857 2.351-1.598 3.857-1.598h12.676v-3.994h-18.336z"/><path style="fill:#f47a80" d="M379.609 425.782c1.506 0 2.87-.611 3.857-1.598s1.598-2.351 1.598-3.857-.611-2.87-1.598-3.857-2.351-1.598-3.857-1.598h-12.676v10.91h12.676z"/><path style="fill:#62bff4" d="M348.802 420.327c0 1.506.611 2.87 1.598 3.857s2.351 1.598 3.857 1.598h12.676v-10.91h-12.676c-1.506 0-2.87.611-3.857 1.598s-1.598 2.351-1.598 3.857z"/></g><path style="fill:#0a9c63" d="M316.529 142.516c0 14.635 5.932 27.884 15.522 37.475 9.591 9.591 22.84 15.522 37.474 15.522S397.41 189.581 407 179.99s15.522-22.84 15.522-37.475-5.932-27.884-15.522-37.474-22.84-15.522-37.474-15.522-27.884 5.932-37.474 15.522c-9.591 9.591-15.523 22.84-15.523 37.475zM344.311 306.369c0 5.752 2.331 10.959 6.101 14.728s8.977 6.101 14.728 6.101 10.959-2.331 14.728-6.101 6.101-8.977 6.101-14.728c0-5.752-2.331-10.959-6.101-14.728s-8.977-6.101-14.728-6.101-10.959 2.331-14.728 6.101-6.101 8.977-6.101 14.728zM420.15 241.549a20.76 20.76 0 0 0 6.101 14.728 20.765 20.765 0 0 0 14.728 6.101 20.76 20.76 0 0 0 14.728-6.101c3.769-3.769 6.101-8.977 6.101-14.728s-2.331-10.959-6.101-14.728a20.765 20.765 0 0 0-14.728-6.101c-5.752 0-10.959 2.331-14.728 6.101s-6.101 8.976-6.101 14.728zM32.182 241.549a20.76 20.76 0 0 0 6.101 14.728c3.769 3.769 8.977 6.101 14.728 6.101s10.959-2.331 14.728-6.101c3.769-3.769 6.101-8.977 6.101-14.728s-2.331-10.959-6.101-14.728c-3.769-3.769-8.977-6.101-14.728-6.101s-10.959 2.331-14.728 6.101a20.76 20.76 0 0 0-6.101 14.728z"/></svg>